<svg aria-hidden="true" style="position:absolute;width:0;height:0;overflow:hidden" xmlns="http://www.w3.org/2000/svg">
  <defs>
    <symbol id="icon-instagram" viewBox="0 0 32 32">
      <path d="M28.717 10.756a9.264 9.264 0 0 0-.596-3.145 6.547 6.547 0 0 0-3.743-3.737 9.42 9.42 0 0 0-3.108-.596c-1.368-.061-1.801-.078-5.273-.078s-3.917 0-5.274.078a9.418 9.418 0 0 0-3.106.596 6.541 6.541 0 0 0-3.743 3.737 9.288 9.288 0 0 0-.596 3.101c-.061 1.367-.08 1.8-.08 5.265s0 3.909.08 5.265a9.335 9.335 0 0 0 .596 3.104 6.548 6.548 0 0 0 3.744 3.735 9.37 9.37 0 0 0 3.106.639c1.369.061 1.803.08 5.274.08s3.916 0 5.274-.08a9.357 9.357 0 0 0 3.108-.595 6.555 6.555 0 0 0 3.743-3.737 9.35 9.35 0 0 0 .596-3.104c.061-1.365.08-1.798.08-5.265-.003-3.466-.003-3.906-.082-5.264zM15.99 22.531c-3.631 0-6.572-2.936-6.572-6.561s2.941-6.561 6.572-6.561c3.628 0 6.572 2.936 6.572 6.561s-2.944 6.561-6.572 6.561zm6.833-11.835a1.53 1.53 0 1 1 0-3.06 1.53 1.53 0 1 1 0 3.06z"/>
      <path d="M15.992 19.976a4.004 4.004 0 1 0 0-8.009 4.004 4.004 0 0 0 0 8.009z"/>
    </symbol>
    <symbol id="icon-youtube" viewBox="0 0 32 32">
      <path d="M24.24 6c-1.36-.08-4.16-.16-8.4-.16h-.56c-4.08 0-6.8.08-8.16.24-1.84.16-3.12.64-3.84 1.28-.64.56-1.12 1.6-1.28 2.96-.08.88-.16 2.72-.16 5.52v.4c0 2.64.08 4.48.24 5.36.24 1.28.64 2.24 1.44 2.8.8.64 2.16 1.04 4.08 1.2 1.36.08 4.16.16 8.4.16h.56c4.08 0 6.8-.08 8.16-.24 1.84-.16 3.12-.64 3.84-1.28.64-.56 1.12-1.6 1.28-2.96.08-.88.16-2.72.16-5.52v-.4c0-2.64-.08-4.48-.24-5.36-.24-1.28-.64-2.24-1.44-2.8-.8-.64-2.16-1.04-4.08-1.2zm-3.12 9.84-8.8 5.28V10.56l8.8 5.28z"/>
    </symbol>
    <symbol id="icon-facebook" viewBox="0 0 32 32">
      <path d="M19.52 4.64h.96v3.6h-1.2c-.48 0-.96 0-1.2.24s-.24.48-.24 1.04v1.28h2.64v3.04h-2.64v13.2h-4.08V13.76H11.6v-3.04h2.16V9.68c0-1.76.24-3.04.72-3.6.72-1.04 2.16-1.52 4.32-1.52.24.08.48.08.72.08z"/>
    </symbol>
    <symbol id="icon-arrow-top-right" viewBox="0 0 32 32">
      <path fill="#f4f4f4" style="fill:var(--color1, #f4f4f4)" d="M16.747 7.652v17.019h-1.811V7.652l-8.509 8.509-1.28-1.28L15.84 4.185 26.536 14.88l-1.28 1.28-8.51-8.509z"/>
    </symbol>
    <symbol id="icon-x" viewBox="0 0 32 32">
      <path stroke-linejoin="round" stroke-linecap="round" stroke-width="2.667" d="M22.667 9.333 9.334 22.666M9.333 9.333l13.333 13.333"/>
    </symbol>
    <symbol id="icon-search" viewBox="0 0 32 32">
      <path stroke-linejoin="round" stroke-linecap="round" stroke-width="2.667" d="M14.667 25.333c5.891 0 10.667-4.776 10.667-10.667S20.558 3.999 14.667 3.999 4 8.775 4 14.666s4.776 10.667 10.667 10.667zM28 28l-5.8-5.8"/>
    </symbol>
    <symbol id="icon-trashcan" xmlns="http://www.w3.org/2000/svg" width="20" height="20" fill="none">
  <path stroke="#242424" stroke-linecap="round" stroke-linejoin="round" stroke-width="1.5" d="M13.333 5v-.667c0-.933 0-1.4-.181-1.756a1.667 1.667 0 0 0-.729-.729c-.356-.181-.823-.181-1.756-.181H9.333c-.933 0-1.4 0-1.756.181-.314.16-.569.415-.729.729-.181.356-.181.823-.181 1.756V5m1.666 4.583v4.167m3.334-4.167v4.167M2.5 5h15m-1.667 0v9.333c0 1.4 0 2.1-.272 2.635a2.5 2.5 0 0 1-1.093 1.093c-.534.272-1.235.272-2.635.272H8.167c-1.4 0-2.1 0-2.635-.272a2.5 2.5 0 0 1-1.093-1.093c-.272-.535-.272-1.235-.272-2.635V5"/>
</symbol>
    <symbol id="icon-heart" xmlns="http://www.w3.org/2000/svg" fill="none">
      <path stroke="currentColor" stroke-linecap="round" stroke-linejoin="round" stroke-width="1.5" d="M17.367 3.842a4.583 4.583 0 0 0-6.483 0L10 4.725l-.883-.883a4.584 4.584 0 1 0-6.483 6.483l.883.883L10 17.692l6.484-6.484.883-.883a4.585 4.585 0 0 0 0-6.483Z"/>
    </symbol>
    <symbol id="icon-right-double-arrows" viewBox="0 0 32 32">
      <path d="M21.85 16.611a.873.873 0 0 0 .188-.942.873.873 0 0 0-.188-.28l-3.948-3.94a.873.873 0 0 1-.188-.942.857.857 0 0 1 .794-.53.86.86 0 0 1 .606.25l3.948 3.948a2.583 2.583 0 0 1 0 3.648l-3.948 3.948a.864.864 0 0 1-1.213 0 .873.873 0 0 1-.188-.942.873.873 0 0 1 .188-.28l3.948-3.94zM14.624 16.611a.873.873 0 0 0 .188-.942.873.873 0 0 0-.188-.28l-3.948-3.94a.873.873 0 0 1-.188-.942.857.857 0 0 1 .794-.53.86.86 0 0 1 .606.25l3.948 3.948a2.583 2.583 0 0 1 0 3.648l-3.948 3.948a.864.864 0 0 1-1.213 0 .873.873 0 0 1-.188-.942.873.873 0 0 1 .188-.28l3.948-3.94z"/>
    </symbol>
    <symbol id="icon-right-arrow" viewBox="0 0 32 32">
      <path d="M17.867 16.947a1.334 1.334 0 0 0 0-1.894l-6.12-6.107a1.334 1.334 0 1 1 1.88-1.894l6.12 6.12a4.001 4.001 0 0 1 0 5.654l-6.12 6.12a1.337 1.337 0 0 1-2.172-.434 1.331 1.331 0 0 1 .292-1.46l6.12-6.107z"/>
    </symbol>
    <symbol id="icon-left-arrow" viewBox="0 0 32 32">
      <path d="M14.133 16.947a1.334 1.334 0 0 1 0-1.894l6.12-6.107a1.334 1.334 0 1 0-1.88-1.894l-6.12 6.12a4.001 4.001 0 0 0 0 5.654l6.12 6.12a1.337 1.337 0 0 0 2.172-.434 1.331 1.331 0 0 0-.292-1.46l-6.12-6.107z"/>
    </symbol>
    <symbol id="icon-30" viewBox="0 0 32 32">
      <path stroke-width="2.133" d="m15.168 13.852.832-.156.832.156.72.446.51.676.232.814-.078.843-.377.758-.626.57-.789.306h-.847l-.789-.306-.626-.57-.377-.758-.078-.843.232-.814.51-.676.72-.446z"/>
    </symbol>
    <symbol id="icon-left-arrows" viewBox="0 0 32 32">
      <path d="M10.15 16.611a.873.873 0 0 1-.188-.942.873.873 0 0 1 .188-.28l3.948-3.94a.873.873 0 0 0 .188-.942.857.857 0 0 0-.794-.53.86.86 0 0 0-.606.25l-3.948 3.948a2.583 2.583 0 0 0 0 3.648l3.948 3.948a.864.864 0 0 0 1.213 0 .873.873 0 0 0 .188-.942.873.873 0 0 0-.188-.28l-3.948-3.94zM17.376 16.611a.873.873 0 0 1-.188-.942.873.873 0 0 1 .188-.28l3.948-3.94a.873.873 0 0 0 .188-.942.857.857 0 0 0-.794-.53.86.86 0 0 0-.606.25l-3.948 3.948a2.583 2.583 0 0 0 0 3.648l3.948 3.948a.864.864 0 0 0 1.213 0 .873.873 0 0 0 .188-.942.873.873 0 0 0-.188-.28l-3.948-3.94z"/>
    </symbol>
    <symbol id="icon-star" viewBox="0 0 32 32">
      <path fill="#f4f4f4" style="fill:var(--color1, #f4f4f4)" opacity=".2" d="M14.478 2.283c.479-1.474 2.564-1.474 3.043 0l2.43 7.478a1.6 1.6 0 0 0 1.522 1.106h7.863c1.55 0 2.194 1.983.94 2.894l-6.361 4.622a1.6 1.6 0 0 0-.581 1.789l2.43 7.478c.479 1.474-1.208 2.7-2.462 1.789l-6.361-4.622a1.602 1.602 0 0 0-1.881 0l-6.361 4.622c-1.254.911-2.941-.315-2.462-1.789l2.43-7.478a1.6 1.6 0 0 0-.581-1.789l-6.361-4.622c-1.254-.911-.61-2.894.94-2.894h7.863a1.6 1.6 0 0 0 1.522-1.106l2.43-7.478z"/>
    </symbol>
    <symbol id="icon-yellow-star" viewBox="0 0 32 32">
      <path fill="#eea10c" style="fill:var(--color2, #eea10c)" d="M13.826 3.262c.684-2.106 3.663-2.106 4.348 0l1.932 5.945a2.285 2.285 0 0 0 2.174 1.579h6.251c2.214 0 3.135 2.833 1.344 4.135l-5.057 3.674a2.286 2.286 0 0 0-.83 2.556l1.931 5.945c.684 2.106-1.726 3.857-3.517 2.555l-5.057-3.674a2.286 2.286 0 0 0-2.687 0l-5.057 3.674c-1.791 1.302-4.202-.45-3.517-2.555l1.932-5.945a2.287 2.287 0 0 0-.83-2.556l-5.057-3.674c-1.791-1.302-.871-4.135 1.344-4.135h6.251c.99 0 1.868-.638 2.174-1.579l1.932-5.945z"/>
    </symbol>
    <symbol id="icon-inverted-commas" viewBox="0 0 32 32">
      <path fill="#f4f4f4" style="fill:var(--color1, #f4f4f4)" d="M8.201 17.469c1.546-.613 2.785-.452 3.719.481s1.21 2.421.831 4.463c-.292 1.517-.933 2.683-1.925 3.5-.963.787-2.085 1.181-3.369 1.181-1.75 0-2.96-.671-3.631-2.013-.671-1.371-.802-3.208-.394-5.512.233-1.254.613-2.523 1.137-3.806s1.225-2.596 2.1-3.938 2.013-2.508 3.413-3.5 2.946-1.633 4.637-1.925l-.437 4.638c-1.429.292-2.698 1.035-3.806 2.231-1.108 1.167-1.867 2.567-2.275 4.2zm13.169 0c1.546-.613 2.785-.452 3.719.481s1.21 2.421.831 4.463c-.292 1.517-.933 2.683-1.925 3.5-.963.787-2.085 1.181-3.369 1.181-1.75 0-2.96-.671-3.631-2.013-.671-1.371-.802-3.208-.394-5.512.233-1.254.613-2.523 1.137-3.806s1.225-2.596 2.1-3.938 2.013-2.508 3.413-3.5 2.946-1.633 4.637-1.925l-.437 4.638c-1.429.292-2.698 1.035-3.806 2.231-1.108 1.167-1.867 2.567-2.275 4.2z"/>
    </symbol>
    <symbol id="icon-energy" viewBox="0 0 32 32">
      <path fill="#242424" style="fill:var(--color3, #242424)" d="M32 16c0 8.837-7.163 16-16 16S0 24.837 0 16 7.163 0 16 0s16 7.163 16 16z"/>
      <path fill="#f4f4f4" style="fill:var(--color1, #f4f4f4)" d="M10.6 11.714H9.4c-.332 0-.6.287-.6.643v2.786h-.6c-.11 0-.2.096-.2.214v1.286c0 .118.09.214.2.214h.6v2.786c0 .356.268.643.6.643h1.2c.332 0 .6-.287.6-.643v-7.286c0-.356-.268-.643-.6-.643zm13.2 3.429h-.6v-2.786c0-.356-.267-.643-.6-.643h-1.2c-.332 0-.6.287-.6.643v7.286c0 .356.267.643.6.643h1.2c.332 0 .6-.287.6-.643v-2.786h.6c.11 0 .2-.096.2-.214v-1.286c0-.118-.09-.214-.2-.214zM19.4 10h-1.2c-.332 0-.6.287-.6.643v4.5h-3.2v-4.5c0-.356-.268-.643-.6-.643h-1.2c-.332 0-.6.287-.6.643v10.714c0 .356.268.643.6.643h1.2c.332 0 .6-.287.6-.643v-4.5h3.2v4.5c0 .356.267.643.6.643h1.2c.332 0 .6-.287.6-.643V10.643c0-.356-.267-.643-.6-.643z"/>
    </symbol>
    <symbol id="icon-human" viewBox="0 0 32 32">
      <path fill="#f4f4f4" style="fill:var(--color1, #f4f4f4)" opacity=".2" d="M32 16c0 8.837-7.163 16-16 16S0 24.837 0 16 7.163 0 16 0s16 7.163 16 16z"/>
      <path fill="#f4f4f4" style="fill:var(--color1, #f4f4f4)" d="M24.729 11.907a.77.77 0 0 0-1.066-.093l-2.099 1.723-.965-2.337a.71.71 0 0 0-.146-.226 2.027 2.027 0 0 0-1.012-1.01 2.129 2.129 0 0 0-.628-.164c-.047-.024-.089-.055-.142-.071l-3.694-1.006a.773.773 0 0 0-.586.078.731.731 0 0 0-.46.42l-1.391 3.495a.738.738 0 0 0 .432.959.765.765 0 0 0 .98-.424l1.175-2.951 1.683.457c-.041.065-.085.126-.119.195l-2.157 4.568c-.031.067-.048.135-.07.205l-2.621 4.294-4.387 1.434a1.08 1.08 0 0 0-.235 1.531 1.139 1.139 0 0 0 1.566.231l4.489-1.511c.137-.098.237-.225.313-.363.056-.058.121-.105.164-.178l1.563-2.56 2.774 2.31-2.968 3.268a1.076 1.076 0 0 0 .095 1.543c.462.402 1.17.36 1.582-.093l3.704-4.078c.115-.126.184-.271.23-.422.028-.082.028-.168.034-.253 0-.043.017-.082.013-.122a1.062 1.062 0 0 0-.385-.796l-2.553-2.127c.184-.171.34-.375.453-.614l1.654-3.499.53 1.379a.683.683 0 0 0 .153.343.73.73 0 0 0 .29.198c.011.005.024.007.038.01a.72.72 0 0 0 .47.023l.003-.001c.023-.005.047-.001.07-.011a.752.752 0 0 0 .298-.212l3.013-2.499c.32-.263.185-.729-.084-1.042zM20.919 10.126c1.166 0 2.111-.924 2.111-2.063S22.085 6 20.919 6c-1.166 0-2.111.924-2.111 2.063s.945 2.063 2.111 2.063z"/>
    </symbol>
  </defs>
</svg>
